<svg xmlns="http://www.w3.org/2000/svg" xmlns:xlink="http://www.w3.org/1999/xlink" width="1920" zoomAndPan="magnify" viewBox="0 0 1440 809.999993" height="1080" preserveAspectRatio="xMidYMid meet" version="1.0"><defs><g/><clipPath id="7dafdaae91"><path d="M 298 16 L 1047.878906 16 L 1047.878906 433 L 298 433 Z M 298 16 " clip-rule="nonzero"/></clipPath><clipPath id="d8a0e7f08c"><path d="M 0.359375 1 L 700 1 L 700 414 L 0.359375 414 Z M 0.359375 1 " clip-rule="nonzero"/></clipPath><clipPath id="d68c860dfd"><rect x="0" width="750" y="0" height="417"/></clipPath><clipPath id="67ecc0d61b"><path d="M 0.519531 0.28125 L 293 0.28125 L 293 446.921875 L 0.519531 446.921875 Z M 0.519531 0.28125 " clip-rule="nonzero"/></clipPath><clipPath id="bb69c7183b"><rect x="0" width="293" y="0" height="447"/></clipPath><clipPath id="0da9e9c506"><rect x="0" width="1048" y="0" height="447"/></clipPath></defs><g transform="matrix(1, 0, 0, 1, 245, 161)"><g clip-path="url(#0da9e9c506)"><g clip-path="url(#7dafdaae91)"><g transform="matrix(1, 0, 0, 1, 298, 16)"><g clip-path="url(#d68c860dfd)"><g clip-path="url(#d8a0e7f08c)"><path fill="#d6c9fe" d="M 0.460938 1.964844 L 699.3125 1.964844 L 699.3125 413.34375 L 0.460938 413.34375 L 0.460938 1.964844 " fill-opacity="1" fill-rule="nonzero"/></g><g fill="#18375d" fill-opacity="1"><g transform="translate(0.462166, 321.516265)"><g><path d="M 64.546875 -277.1875 L 110.875 -277.1875 C 127.507812 -277.1875 140.90625 -272.765625 151.0625 -263.921875 C 161.226562 -255.078125 166.3125 -241.8125 166.3125 -224.125 C 166.3125 -220.957031 166.113281 -217.59375 165.71875 -214.03125 C 165.320312 -210.46875 164.859375 -206.835938 164.328125 -203.140625 L 162.359375 -192.046875 C 160.503906 -182.015625 157.859375 -173.695312 154.421875 -167.09375 C 150.992188 -160.5 147.566406 -155.222656 144.140625 -151.265625 C 140.179688 -146.515625 135.957031 -142.953125 131.46875 -140.578125 C 134.101562 -138.203125 136.609375 -135.164062 138.984375 -131.46875 C 141.097656 -128.300781 142.945312 -124.207031 144.53125 -119.1875 C 146.113281 -114.175781 146.90625 -108.238281 146.90625 -101.375 C 146.90625 -96.09375 146.378906 -90.8125 145.328125 -85.53125 L 141.359375 -63.359375 C 136.878906 -39.597656 128.894531 -23.097656 117.40625 -13.859375 C 105.925781 -4.617188 91.738281 0 74.84375 0 L 15.84375 0 Z M 76.03125 -39.59375 C 81.3125 -39.59375 85.863281 -41.441406 89.6875 -45.140625 C 93.519531 -48.835938 96.359375 -55.703125 98.203125 -65.734375 L 102.5625 -89.890625 C 103.09375 -92.265625 103.359375 -94.109375 103.359375 -95.421875 C 103.359375 -96.742188 103.359375 -98.195312 103.359375 -99.78125 C 103.359375 -106.125 102.035156 -110.878906 99.390625 -114.046875 C 96.753906 -117.210938 93.457031 -118.796875 89.5 -118.796875 L 79.984375 -118.796875 L 66.125 -39.59375 Z M 95.4375 -160.375 C 100.71875 -160.375 105.269531 -162.222656 109.09375 -165.921875 C 112.914062 -169.617188 115.753906 -176.484375 117.609375 -186.515625 L 121.5625 -208.6875 C 122.09375 -211.0625 122.359375 -212.90625 122.359375 -214.21875 C 122.359375 -215.539062 122.359375 -216.992188 122.359375 -218.578125 C 122.359375 -224.921875 121.035156 -229.675781 118.390625 -232.84375 C 115.753906 -236.007812 112.457031 -237.59375 108.5 -237.59375 L 100.96875 -237.59375 L 87.515625 -160.375 Z M 95.4375 -160.375 "/></g></g></g><g fill="#18375d" fill-opacity="1"><g transform="translate(131.121277, 321.516265)"><g><path d="M 64.546875 -277.1875 L 110.875 -277.1875 C 127.507812 -277.1875 140.90625 -272.765625 151.0625 -263.921875 C 161.226562 -255.078125 166.3125 -241.8125 166.3125 -224.125 C 166.3125 -220.957031 166.113281 -217.59375 165.71875 -214.03125 C 165.320312 -210.46875 164.859375 -206.835938 164.328125 -203.140625 L 159.578125 -174.234375 C 156.941406 -160.765625 153.179688 -149.675781 148.296875 -140.96875 C 143.410156 -132.257812 137.535156 -125.53125 130.671875 -120.78125 L 134.640625 0 L 89.890625 0 C 89.628906 -8.707031 89.363281 -18.9375 89.09375 -30.6875 C 88.832031 -42.4375 88.632812 -53.785156 88.5 -64.734375 C 88.363281 -75.691406 88.226562 -85.460938 88.09375 -94.046875 C 87.96875 -102.628906 87.90625 -108.238281 87.90625 -110.875 L 78.796875 -110.875 L 59.390625 0 L 15.84375 0 Z M 93.84375 -150.46875 C 99.125 -150.46875 103.675781 -152.316406 107.5 -156.015625 C 111.332031 -159.710938 114.171875 -166.578125 116.015625 -176.609375 L 121.5625 -208.6875 C 122.09375 -211.0625 122.359375 -212.90625 122.359375 -214.21875 C 122.359375 -215.539062 122.359375 -216.992188 122.359375 -218.578125 C 122.359375 -224.921875 121.035156 -229.675781 118.390625 -232.84375 C 115.753906 -236.007812 112.457031 -237.59375 108.5 -237.59375 L 100.96875 -237.59375 L 85.921875 -150.46875 Z M 93.84375 -150.46875 "/></g></g></g><g fill="#18375d" fill-opacity="1"><g transform="translate(263.760102, 321.516265)"><g><path d="M 64.546875 -277.1875 L 108.109375 -277.1875 L 59.390625 0 L 15.84375 0 Z M 64.546875 -277.1875 "/></g></g></g><g fill="#18375d" fill-opacity="1"><g transform="translate(331.068697, 321.516265)"><g><path d="M 64.546875 -277.1875 L 110.875 -277.1875 C 127.507812 -277.1875 140.90625 -272.765625 151.0625 -263.921875 C 161.226562 -255.078125 166.3125 -241.8125 166.3125 -224.125 C 166.3125 -220.957031 166.113281 -217.59375 165.71875 -214.03125 C 165.320312 -210.46875 164.859375 -206.835938 164.328125 -203.140625 L 139.78125 -63.359375 C 135.289062 -39.597656 127.300781 -23.097656 115.8125 -13.859375 C 104.332031 -4.617188 90.144531 0 73.25 0 L 15.84375 0 Z M 74.046875 -39.59375 C 79.328125 -39.59375 83.878906 -41.441406 87.703125 -45.140625 C 91.535156 -48.835938 94.375 -55.703125 96.21875 -65.734375 L 121.5625 -208.6875 C 122.09375 -211.0625 122.359375 -212.90625 122.359375 -214.21875 C 122.359375 -215.539062 122.359375 -216.992188 122.359375 -218.578125 C 122.359375 -224.921875 121.035156 -229.675781 118.390625 -232.84375 C 115.753906 -236.007812 112.457031 -237.59375 108.5 -237.59375 L 100.96875 -237.59375 L 66.125 -39.59375 Z M 74.046875 -39.59375 "/></g></g></g><g fill="#18375d" fill-opacity="1"><g transform="translate(463.707521, 321.516265)"><g><path d="M 67.3125 3.953125 C 53.320312 3.953125 42.5 -0.597656 34.84375 -9.703125 C 27.1875 -18.804688 23.359375 -31.28125 23.359375 -47.125 C 23.359375 -50.03125 23.554688 -53.195312 23.953125 -56.625 C 24.347656 -60.0625 24.8125 -63.625 25.34375 -67.3125 L 52.265625 -218.984375 C 55.703125 -238.253906 62.5 -253.429688 72.65625 -264.515625 C 82.820312 -275.609375 96.878906 -281.15625 114.828125 -281.15625 C 130.671875 -281.15625 143.410156 -276.796875 153.046875 -268.078125 C 162.679688 -259.367188 167.5 -246.300781 167.5 -228.875 C 167.5 -225.96875 167.300781 -222.863281 166.90625 -219.5625 C 166.507812 -216.269531 166.046875 -212.773438 165.515625 -209.078125 L 161.5625 -188.09375 L 118 -188.09375 L 122.75 -217 C 123.28125 -218.84375 123.546875 -220.625 123.546875 -222.34375 C 123.546875 -224.0625 123.546875 -225.582031 123.546875 -226.90625 C 123.546875 -232.175781 122.359375 -235.929688 119.984375 -238.171875 C 117.609375 -240.421875 114.835938 -241.546875 111.671875 -241.546875 C 108.234375 -241.546875 105.0625 -239.828125 102.15625 -236.390625 C 99.257812 -232.960938 97.148438 -227.289062 95.828125 -219.375 L 67.71875 -60.1875 C 66.925781 -56.226562 66.53125 -53.0625 66.53125 -50.6875 C 66.53125 -40.65625 70.617188 -35.640625 78.796875 -35.640625 C 81.960938 -35.640625 85.128906 -37.15625 88.296875 -40.1875 C 91.472656 -43.226562 93.851562 -49.101562 95.4375 -57.8125 L 105.328125 -115.234375 L 90.28125 -115.234375 L 97.015625 -154.4375 L 155.625 -154.4375 L 128.296875 1.984375 L 106.515625 1.984375 L 103.75 -15.84375 C 101.375 -12.144531 98.46875 -8.84375 95.03125 -5.9375 C 92.132812 -3.300781 88.375 -0.992188 83.75 0.984375 C 79.132812 2.960938 73.65625 3.953125 67.3125 3.953125 Z M 67.3125 3.953125 "/></g></g></g><g fill="#18375d" fill-opacity="1"><g transform="translate(596.346345, 321.516265)"><g><path d="M 64.546875 -277.1875 L 149.6875 -277.1875 L 142.15625 -235.609375 L 100.578125 -235.609375 L 87.515625 -160.375 L 125.125 -160.375 L 117.609375 -118.796875 L 79.984375 -118.796875 L 66.53125 -41.578125 L 110.078125 -41.578125 L 102.953125 0 L 15.84375 0 Z M 64.546875 -277.1875 "/></g></g></g></g></g></g><g clip-path="url(#67ecc0d61b)"><g transform="matrix(1, 0, 0, 1, 0, 0.000000000000028422)"><g clip-path="url(#bb69c7183b)"><g fill="#18375d" fill-opacity="1"><g transform="translate(0.74683, 374.924466)"><g><path d="M 58.3125 -270.359375 L 31.8125 -270.359375 L 31.8125 -164.328125 L 53.015625 -164.328125 L 53.015625 -148.421875 L 31.8125 -148.421875 L 31.8125 0 L 10.609375 0 L 10.609375 -286.25 L 58.3125 -286.25 Z M 58.3125 -270.359375 "/></g></g></g><g fill="#18375d" fill-opacity="1"><g transform="translate(57.57348, 374.924466)"><g><path d="M 74.21875 -26.5 C 74.21875 -25.175781 74.050781 -22.773438 73.71875 -19.296875 C 73.382812 -15.816406 72.222656 -12.253906 70.234375 -8.609375 C 68.242188 -4.960938 65.09375 -1.734375 60.78125 1.078125 C 56.476562 3.890625 50.351562 5.296875 42.40625 5.296875 C 34.457031 5.296875 28.328125 3.890625 24.015625 1.078125 C 19.710938 -1.734375 16.566406 -4.960938 14.578125 -8.609375 C 12.585938 -12.253906 11.425781 -15.816406 11.09375 -19.296875 C 10.769531 -22.773438 10.609375 -25.175781 10.609375 -26.5 L 10.609375 -259.75 C 10.609375 -260.632812 10.660156 -261.957031 10.765625 -263.71875 C 10.878906 -265.488281 11.210938 -267.453125 11.765625 -269.609375 C 12.316406 -271.765625 13.253906 -273.972656 14.578125 -276.234375 C 15.898438 -278.492188 17.71875 -280.5625 20.03125 -282.4375 C 22.351562 -284.320312 25.335938 -285.84375 28.984375 -287 C 32.628906 -288.15625 37.101562 -288.734375 42.40625 -288.734375 C 47.707031 -288.734375 52.179688 -288.15625 55.828125 -287 C 59.472656 -285.84375 62.453125 -284.320312 64.765625 -282.4375 C 67.085938 -280.5625 68.910156 -278.492188 70.234375 -276.234375 C 71.554688 -273.972656 72.492188 -271.765625 73.046875 -269.609375 C 73.609375 -267.453125 73.941406 -265.488281 74.046875 -263.71875 C 74.160156 -261.957031 74.21875 -260.632812 74.21875 -259.75 Z M 31.8125 -26.5 C 31.8125 -25.175781 31.863281 -23.601562 31.96875 -21.78125 C 32.082031 -19.957031 32.46875 -18.21875 33.125 -16.5625 C 33.789062 -14.90625 34.84375 -13.5 36.28125 -12.34375 C 37.71875 -11.1875 39.757812 -10.609375 42.40625 -10.609375 C 45.0625 -10.609375 47.101562 -11.1875 48.53125 -12.34375 C 49.96875 -13.5 51.015625 -14.90625 51.671875 -16.5625 C 52.335938 -18.21875 52.726562 -19.957031 52.84375 -21.78125 C 52.957031 -23.601562 53.015625 -25.175781 53.015625 -26.5 L 53.015625 -259.75 C 53.015625 -261.070312 52.957031 -262.503906 52.84375 -264.046875 C 52.726562 -265.597656 52.335938 -267.007812 51.671875 -268.28125 C 51.015625 -269.550781 49.96875 -270.628906 48.53125 -271.515625 C 47.101562 -272.398438 45.0625 -272.84375 42.40625 -272.84375 C 39.757812 -272.84375 37.71875 -272.398438 36.28125 -271.515625 C 34.84375 -270.628906 33.789062 -269.550781 33.125 -268.28125 C 32.46875 -267.007812 32.082031 -265.597656 31.96875 -264.046875 C 31.863281 -262.503906 31.8125 -261.070312 31.8125 -259.75 Z M 31.8125 -26.5 "/></g></g></g><g fill="#18375d" fill-opacity="1"><g transform="translate(135.604138, 374.924466)"><g><path d="M 74.21875 -26.5 C 74.21875 -25.175781 74.050781 -22.773438 73.71875 -19.296875 C 73.382812 -15.816406 72.222656 -12.253906 70.234375 -8.609375 C 68.242188 -4.960938 65.09375 -1.734375 60.78125 1.078125 C 56.476562 3.890625 50.351562 5.296875 42.40625 5.296875 C 34.457031 5.296875 28.328125 3.890625 24.015625 1.078125 C 19.710938 -1.734375 16.566406 -4.960938 14.578125 -8.609375 C 12.585938 -12.253906 11.425781 -15.816406 11.09375 -19.296875 C 10.769531 -22.773438 10.609375 -25.175781 10.609375 -26.5 L 10.609375 -259.75 C 10.609375 -260.632812 10.660156 -261.957031 10.765625 -263.71875 C 10.878906 -265.488281 11.210938 -267.453125 11.765625 -269.609375 C 12.316406 -271.765625 13.253906 -273.972656 14.578125 -276.234375 C 15.898438 -278.492188 17.71875 -280.5625 20.03125 -282.4375 C 22.351562 -284.320312 25.335938 -285.84375 28.984375 -287 C 32.628906 -288.15625 37.101562 -288.734375 42.40625 -288.734375 C 47.707031 -288.734375 52.179688 -288.15625 55.828125 -287 C 59.472656 -285.84375 62.453125 -284.320312 64.765625 -282.4375 C 67.085938 -280.5625 68.910156 -278.492188 70.234375 -276.234375 C 71.554688 -273.972656 72.492188 -271.765625 73.046875 -269.609375 C 73.609375 -267.453125 73.941406 -265.488281 74.046875 -263.71875 C 74.160156 -261.957031 74.21875 -260.632812 74.21875 -259.75 Z M 31.8125 -26.5 C 31.8125 -25.175781 31.863281 -23.601562 31.96875 -21.78125 C 32.082031 -19.957031 32.46875 -18.21875 33.125 -16.5625 C 33.789062 -14.90625 34.84375 -13.5 36.28125 -12.34375 C 37.71875 -11.1875 39.757812 -10.609375 42.40625 -10.609375 C 45.0625 -10.609375 47.101562 -11.1875 48.53125 -12.34375 C 49.96875 -13.5 51.015625 -14.90625 51.671875 -16.5625 C 52.335938 -18.21875 52.726562 -19.957031 52.84375 -21.78125 C 52.957031 -23.601562 53.015625 -25.175781 53.015625 -26.5 L 53.015625 -259.75 C 53.015625 -261.070312 52.957031 -262.503906 52.84375 -264.046875 C 52.726562 -265.597656 52.335938 -267.007812 51.671875 -268.28125 C 51.015625 -269.550781 49.96875 -270.628906 48.53125 -271.515625 C 47.101562 -272.398438 45.0625 -272.84375 42.40625 -272.84375 C 39.757812 -272.84375 37.71875 -272.398438 36.28125 -271.515625 C 34.84375 -270.628906 33.789062 -269.550781 33.125 -268.28125 C 32.46875 -267.007812 32.082031 -265.597656 31.96875 -264.046875 C 31.863281 -262.503906 31.8125 -261.070312 31.8125 -259.75 Z M 31.8125 -26.5 "/></g></g></g><g fill="#18375d" fill-opacity="1"><g transform="translate(213.634797, 374.924466)"><g><path d="M 53.015625 -259.75 C 53.015625 -262.394531 52.65625 -264.4375 51.9375 -265.875 C 51.21875 -267.3125 50.03125 -268.359375 48.375 -269.015625 C 46.71875 -269.679688 44.535156 -270.070312 41.828125 -270.1875 C 39.117188 -270.300781 35.78125 -270.359375 31.8125 -270.359375 L 31.8125 -15.90625 C 35.78125 -15.90625 39.117188 -15.957031 41.828125 -16.0625 C 44.535156 -16.175781 46.71875 -16.5625 48.375 -17.21875 C 50.03125 -17.882812 51.21875 -18.9375 51.9375 -20.375 C 52.65625 -21.8125 53.015625 -23.851562 53.015625 -26.5 Z M 74.21875 -26.5 C 74.21875 -19.875 73 -14.765625 70.5625 -11.171875 C 68.132812 -7.585938 64.929688 -4.96875 60.953125 -3.3125 C 56.984375 -1.65625 52.457031 -0.6875 47.375 -0.40625 C 42.289062 -0.132812 37.101562 0 31.8125 0 L 10.609375 0 L 10.609375 -286.25 L 31.8125 -286.25 C 37.101562 -286.25 42.289062 -286.109375 47.375 -285.828125 C 52.457031 -285.554688 56.984375 -284.59375 60.953125 -282.9375 C 64.929688 -281.28125 68.132812 -278.65625 70.5625 -275.0625 C 73 -271.476562 74.21875 -266.375 74.21875 -259.75 Z M 74.21875 -26.5 "/></g></g></g></g></g></g></g></g></svg>